<?xml version="1.0" standalone="no"?><!DOCTYPE svg PUBLIC "-//W3C//DTD SVG 1.1//EN" "http://www.w3.org/Graphics/SVG/1.1/DTD/svg11.dtd"><svg t="1606468867469" class="icon" viewBox="0 0 1024 1024" version="1.1" xmlns="http://www.w3.org/2000/svg" p-id="5031" xmlns:xlink="http://www.w3.org/1999/xlink" width="200" height="200"><defs><style type="text/css"></style></defs><path d="M505.375615 1023.795241a51.189762 51.189762 0 0 1-32.044791-15.04979L169.161258 702.835433a52.111178 52.111178 0 0 1 0-73.406119 51.394521 51.394521 0 0 1 72.894221 0L461.14766 849.85243V51.189762a51.189762 51.189762 0 0 1 102.379524 0v798.662668l219.092182-220.423116a51.394521 51.394521 0 0 1 72.894221 0 52.111178 52.111178 0 0 1 0 73.406119l-304.067186 305.910018a51.189762 51.189762 0 0 1-32.147171 15.04979h-13.923615z" p-id="5032"></path></svg>