<?xml version="1.0" standalone="no"?><!DOCTYPE svg PUBLIC "-//W3C//DTD SVG 1.1//EN" "http://www.w3.org/Graphics/SVG/1.1/DTD/svg11.dtd"><svg t="1606468890902" class="icon" viewBox="0 0 1024 1024" version="1.1" xmlns="http://www.w3.org/2000/svg" p-id="5767" xmlns:xlink="http://www.w3.org/1999/xlink" width="200" height="200"><defs><style type="text/css"></style></defs><path d="M812.8 317.6l-264-264c-20.8-20.8-53.6-20.8-74.4 0l-264 264c-20.8 20.8-20.8 53.6 0 74.4s53.6 20.8 74.4 0l173.6-173.6v713.6c0 28.8 23.2 52.8 52.8 52.8 28.8 0 52.8-23.2 52.8-52.8V219.2l173.6 173.6c10.4 10.4 24 15.2 37.6 15.2 13.6 0 27.2-4.8 37.6-15.2 20.8-20.8 20.8-54.4 0-75.2z" p-id="5768"></path></svg>